<svg viewBox="0 0 24 18" fill="none" xmlns="http://www.w3.org/2000/svg">
<path d="M22 7.27031V5.69531C22 3.825 20.4 2.25 18.5 2.25H5.5C3.6 2.25 2 3.825 2 5.69531V7.27031C0.9 7.46719 0 8.45156 0 9.63281V12.0937C0 13.5703 0.8 14.85 2 15.4406V17.5078C2 17.8031 2.2 18 2.5 18C2.8 18 3 17.8031 3 17.5078V15.9328C3.3 16.0312 3.7 16.0312 4 16.0312H20C20.3 16.0312 20.7 15.9328 21 15.9328V17.5078C21 17.8031 21.2 18 21.5 18C21.8 18 22 17.8031 22 17.5078C22 17.5078 22 15.5391 22 15.4406C23.2 14.7516 24 13.4719 24 12.0937V9.63281C24 8.45156 23.1 7.46719 22 7.27031ZM5.5 3.23437H18.5C19.9 3.23437 21 4.31719 21 5.69531V7.27031C19.9 7.46719 19 8.45156 19 9.63281V11.1094H5V9.63281C5 8.45156 4.1 7.46719 3 7.27031V5.69531C3 4.31719 4.1 3.23437 5.5 3.23437ZM23 12.0937C23 13.7672 21.7 15.0469 20 15.0469H4C2.3 15.0469 1 13.7672 1 12.0937V9.63281C1 8.84531 1.7 8.15625 2.5 8.15625C3.3 8.15625 4 8.84531 4 9.63281V11.6016C4 11.8969 4.2 12.0937 4.5 12.0937H19.5C19.8 12.0937 20 11.8969 20 11.6016V9.63281C20 8.84531 20.7 8.15625 21.5 8.15625C22.3 8.15625 23 8.84531 23 9.63281V12.0937Z" fill="black"/>
</svg>
